<?xml version="1.0" encoding="UTF-8" standalone="no"?>
<svg
   xmlns:dc="http://purl.org/dc/elements/1.1/"
   xmlns:cc="http://creativecommons.org/ns#"
   xmlns:rdf="http://www.w3.org/1999/02/22-rdf-syntax-ns#"
   xmlns:svg="http://www.w3.org/2000/svg"
   xmlns="http://www.w3.org/2000/svg"
   width="48px"
   height="48px"
   id="svg2383"
   version="1.1">
  <defs
     id="defs14" />
  <metadata
     id="metadata2388">
    <rdf:RDF>
      <cc:Work
         rdf:about="">
        <dc:format>image/svg+xml</dc:format>
        <dc:type
           rdf:resource="http://purl.org/dc/dcmitype/StillImage" />
        <dc:title></dc:title>
      </cc:Work>
    </rdf:RDF>
  </metadata>
  <g
     style="font-style:normal;font-weight:bold;font-size:12px;font-family:'Bitstream Vera Sans';fill:#000000;fill-opacity:1;stroke:none;stroke-width:1px;stroke-linecap:butt;stroke-linejoin:miter;stroke-opacity:1"
     id="text2387" />
  <g
     style="font-style:normal;font-weight:normal;font-size:12px;font-family:'Bitstream Vera Sans';fill:#000000;fill-opacity:1;stroke:none;stroke-width:1px;stroke-linecap:butt;stroke-linejoin:miter;stroke-opacity:1"
     id="text2396" />
  <path
     id="path3345"
     d="M 31.21875 7.4335938 C 30.701647 7.9867733 30.214787 8.5851437 29.757812 9.2285156 C 30.341056 10.040247 30.998858 10.934126 31.732422 11.908203 C 32.093191 11.745857 32.568946 11.664062 33.158203 11.664062 C 34.294626 11.664062 35.463452 11.745857 36.666016 11.908203 L 37.865234 10.923828 L 37.865234 8.9492188 C 38.496581 8.9852957 39.020662 9.3420354 39.435547 10.021484 C 39.808342 10.658843 40.118708 11.288882 40.365234 11.908203 C 40.238965 12.226883 40.066071 12.592928 39.849609 13.007812 C 39.675238 13.416686 39.446665 13.645259 39.164062 13.693359 C 37.745037 13.561075 36.420129 13.469975 35.1875 13.421875 C 33.539987 13.421875 32.05149 13.912488 30.722656 14.892578 C 30.265682 15.289425 29.760211 15.536608 29.207031 15.632812 C 28.864301 15.608761 28.548381 15.536272 28.259766 15.416016 L 28.748047 16.371094 C 29.571804 16.497363 30.394993 16.744546 31.21875 17.111328 C 32.096622 15.698315 33.265447 14.793331 34.726562 14.396484 L 34.726562 19.050781 L 34.726562 23.136719 L 32.472656 23.136719 L 32.472656 20.123047 C 31.33022 19.990765 30.347194 19.673045 29.523438 19.167969 L 28.964844 19.681641 L 30.498047 20.638672 L 30.498047 23.171875 C 30.449945 23.490554 30.12472 23.812026 29.523438 24.136719 L 30.263672 25.111328 C 31.039326 24.461943 31.949862 24.136719 32.996094 24.136719 L 34.726562 24.136719 L 34.726562 26.265625 L 34.726562 26.716797 C 33.728434 26.764899 32.860671 27.023187 32.121094 27.492188 C 31.435632 27.92511 30.740609 28.387808 30.037109 28.880859 C 29.177275 29.343848 28.184944 29.609641 27.060547 29.675781 L 27.304688 30.207031 C 27.527162 30.182978 27.737124 30.171875 27.935547 30.171875 C 28.843483 30.171875 29.698342 30.435716 30.498047 30.964844 C 30.56419 31.000917 30.627373 31.019531 30.6875 31.019531 C 30.7356 31.019531 30.77642 31.000917 30.8125 30.964844 C 31.636256 29.130933 32.940754 28.055007 34.726562 27.736328 L 34.726562 31.677734 L 34.726562 32.580078 C 33.211332 32.676283 31.73034 32.852777 30.28125 33.111328 L 30.28125 33.166016 C 30.28125 33.232157 30.322071 33.393792 30.40625 33.652344 C 30.556571 33.898872 30.721959 34.04565 30.902344 34.09375 C 31.112792 34.081723 31.31165 34.076172 31.498047 34.076172 C 32.580355 34.076172 33.65628 34.33446 34.726562 34.851562 L 34.726562 35.888672 C 34.726562 35.960825 34.661579 36.072336 34.529297 36.222656 C 33.579272 36.625516 32.757881 37.272212 32.066406 38.162109 C 32.018304 38.198183 31.958873 38.216797 31.886719 38.216797 C 31.826591 38.216797 31.739244 38.198183 31.625 38.162109 C 31.414551 38.047863 31.24361 37.966069 31.111328 37.917969 C 30.888854 38.104366 30.641671 38.27906 30.371094 38.441406 C 30.876171 38.699958 31.363031 39.099471 31.832031 39.640625 C 32.23489 39.514352 32.68273 39.434511 33.175781 39.398438 L 34.158203 39.398438 C 35.13228 39.410463 36.167385 39.707772 37.261719 40.291016 C 38.356052 40.880272 39.138422 41.658889 39.607422 42.626953 L 45.369141 42.626953 L 45.369141 41.462891 L 42.464844 41.462891 C 41.160061 39.815377 38.374572 38.715289 34.105469 38.162109 C 33.919071 38.150084 33.826172 38.0869 33.826172 37.972656 L 33.826172 37.917969 C 34.463531 37.178391 35.132438 36.767773 35.835938 36.683594 L 36.259766 36.683594 C 36.596484 36.71967 36.936566 36.81257 37.279297 36.962891 L 37.865234 36.457031 L 37.865234 32.580078 L 37.865234 31.677734 L 37.865234 26.265625 L 37.865234 18.148438 L 37.865234 15.416016 C 37.817132 14.85081 37.571902 14.417829 37.126953 14.117188 C 38.521928 14.117188 39.846836 14.297434 41.103516 14.658203 C 41.398144 14.201229 41.734473 13.788658 42.113281 13.421875 C 41.866755 12.309503 41.695815 11.23733 41.599609 10.203125 C 40.457173 9.2831635 39.541083 8.3595682 38.849609 7.4335938 C 38.061929 7.5538502 37.316781 7.6598077 36.613281 7.75 C 34.815447 7.647782 33.016583 7.5418245 31.21875 7.4335938 z M 32.824219 8.7226562 L 34.726562 8.7226562 L 34.726562 11.167969 L 34.394531 11.167969 C 33.853377 11.167969 33.305133 11.045353 32.751953 10.798828 C 32.138644 10.474135 31.798562 10.061564 31.732422 9.5625 C 31.822615 9.0033076 32.18686 8.7226562 32.824219 8.7226562 z "
     style="font-style:normal;font-weight:normal;font-size:medium;line-height:125%;font-family:sans-serif;letter-spacing:0px;word-spacing:0px;fill:#000000;fill-opacity:1;stroke:none;stroke-width:1px;stroke-linecap:butt;stroke-linejoin:miter;stroke-opacity:1" />
  <path
     id="path3353"
     d="M 14.333984 2.8691406 L 14.333984 3.2929688 C 15.085587 4.194892 15.654242 4.9903196 16.039062 5.6757812 L 16.039062 6.8378906 C 15.251383 6.8378906 14.604687 6.7895645 14.099609 6.6933594 C 13.299905 6.6933594 12.480467 6.7008653 11.638672 6.7128906 C 10.123441 6.8090958 8.6404962 6.9911418 7.1914062 7.2617188 L 7.1914062 7.3066406 C 7.1914062 7.3667688 7.2341798 7.5266049 7.3183594 7.7851562 C 7.4686799 8.0316818 7.6340685 8.1784598 7.8144531 8.2265625 C 8.0249019 8.2145372 8.2237588 8.2089844 8.4101562 8.2089844 C 9.4924643 8.2089844 10.56839 8.4672724 11.638672 8.984375 L 11.638672 10.779297 L 9.8515625 10.779297 C 9.196165 10.755246 8.6294632 10.651241 8.1484375 10.464844 L 6.6875 12.222656 C 6.9460513 12.727734 7.2544651 13.329857 7.6152344 14.027344 C 7.9579652 14.694767 8.3760893 15.07567 8.8691406 15.171875 L 11.638672 15.171875 L 11.638672 16.201172 L 11.638672 16.443359 C 10.123441 16.527539 8.6349438 16.705985 7.1738281 16.976562 L 7.1738281 17.011719 C 7.1738281 17.083873 7.2166017 17.243709 7.3007812 17.490234 C 7.4511018 17.748788 7.6220429 17.904871 7.8144531 17.958984 C 8.0128763 17.946958 8.2117331 17.941406 8.4101562 17.941406 C 9.4804383 17.941406 10.556364 18.190389 11.638672 18.689453 L 11.638672 20.025391 C 11.073467 20.097545 10.456486 20.313059 9.7890625 20.673828 C 9.470383 20.854213 9.1823795 20.945312 8.9238281 20.945312 L 7.1738281 20.945312 L 7.6875 21.927734 C 8.7818335 22.011914 9.8411017 22.329633 10.863281 22.882812 C 11.085756 22.419825 11.442496 21.908801 11.935547 21.349609 C 12.392521 20.784401 12.897992 20.477788 13.451172 20.429688 L 13.857422 20.429688 C 14.326422 20.537918 14.930345 21.062 15.669922 22 C 16.331332 22.913949 16.712235 23.547588 16.814453 23.902344 L 16.814453 25.787109 C 16.802428 25.835209 16.752302 25.859375 16.662109 25.859375 C 16.589956 25.859375 16.467341 25.835209 16.292969 25.787109 C 16.010366 25.72698 15.750125 25.663796 15.515625 25.597656 C 14.373189 25.303029 13.224774 25.150699 12.070312 25.138672 L 11.638672 25.138672 C 10.123441 25.234877 8.6404962 25.411371 7.1914062 25.669922 L 7.1914062 25.724609 C 7.1914062 25.790751 7.2341798 25.952386 7.3183594 26.210938 C 7.4686799 26.457466 7.6340685 26.606197 7.8144531 26.654297 C 8.0249019 26.64227 8.2237588 26.634766 8.4101562 26.634766 C 9.4924643 26.634766 10.56839 26.895007 11.638672 27.412109 L 11.638672 29.648438 C 10.123441 29.744643 8.6404962 29.921136 7.1914062 30.179688 L 7.1914062 30.234375 C 7.1914062 30.300516 7.2341798 30.462152 7.3183594 30.720703 C 7.4686799 30.967231 7.6340685 31.115963 7.8144531 31.164062 C 8.0249019 31.152036 8.2237588 31.144531 8.4101562 31.144531 C 9.4924643 31.144531 10.56839 31.404772 11.638672 31.921875 L 11.638672 33.796875 L 9.8515625 33.796875 C 9.196165 33.772824 8.6294632 33.666866 8.1484375 33.480469 L 6.6875 35.240234 C 6.9460513 35.745312 7.2544651 36.345481 7.6152344 37.042969 C 7.9579652 37.710392 8.3760893 38.093248 8.8691406 38.189453 L 11.638672 38.189453 L 11.638672 39.216797 L 11.638672 40.101562 L 11.638672 41.246094 C 11.578542 41.22204 11.517158 41.210938 11.457031 41.210938 C 10.903852 41.210938 10.416991 41.391184 9.9960938 41.751953 C 9.5631706 42.082658 9.1339416 42.443151 8.7070312 42.833984 C 8.5567107 43.068484 8.3709119 43.185547 8.1484375 43.185547 L 8.0214844 43.185547 C 7.7388818 43.14947 7.4805938 43.071429 7.2460938 42.951172 C 7.0837475 43.173647 6.918359 43.415277 6.75 43.673828 C 7.1167821 43.770033 7.5404586 43.946527 8.0214844 44.205078 C 8.5866896 44.108873 9.2928175 44.010421 10.140625 43.908203 L 11.160156 43.908203 C 14.0884 43.956306 16.637965 44.877948 18.808594 46.675781 L 20.007812 46.179688 C 19.845466 45.488213 19.763672 44.841516 19.763672 44.240234 L 19.763672 42.447266 C 20.629519 42.080484 21.216784 41.508076 21.523438 40.732422 C 21.150642 40.816601 20.767786 40.946722 20.376953 41.121094 C 19.450978 41.355593 18.510726 41.478208 17.554688 41.490234 L 17.554688 44.484375 C 17.049611 44.297978 16.640792 44.141894 16.328125 44.015625 C 14.97524 43.552638 13.475638 43.27574 11.828125 43.185547 L 9.6445312 43.185547 C 10.275877 42.385842 11.115878 41.986328 12.162109 41.986328 L 13.595703 41.986328 C 14.016601 41.950251 14.410562 41.784862 14.777344 41.490234 L 14.777344 40.101562 L 14.777344 39.216797 L 14.777344 33.337891 L 14.777344 27.113281 L 13.396484 26.617188 C 13.667062 26.496934 14.066575 26.422645 14.595703 26.392578 C 15.479588 26.422643 16.466367 26.66232 17.554688 27.113281 L 18.791016 25.878906 C 18.568542 25.337752 18.414258 24.525667 18.330078 23.443359 C 17.957283 22.938282 17.401687 22.291586 16.662109 21.503906 C 16.000699 20.752304 15.372613 20.270996 14.777344 20.060547 L 14.777344 16.201172 L 14.777344 10.320312 L 14.777344 7.5605469 C 14.987792 7.5485215 15.192202 7.5410156 15.390625 7.5410156 C 16.388753 7.5410156 17.362474 7.7398725 18.3125 8.1367188 L 21.082031 8.3710938 C 21.082031 9.2850427 21.005789 10.203085 20.855469 11.123047 C 21.089969 11.098994 21.337152 11.085938 21.595703 11.085938 C 22.617882 11.085938 23.602708 11.344225 24.552734 11.861328 L 24.552734 10.851562 L 23.300781 10.130859 C 23.270715 9.9564873 23.253906 9.7762412 23.253906 9.5898438 C 23.253906 9.1268565 23.359864 8.7198374 23.570312 8.3710938 L 22.794922 7.5605469 C 21.652486 7.5364956 20.177047 7.4881695 18.367188 7.4160156 L 18.367188 7.3984375 C 18.367188 6.8212066 18.237067 6.3398987 17.978516 5.9550781 C 16.968362 4.8968215 16.076435 3.867269 15.300781 2.8691406 L 14.333984 2.8691406 z M 10.980469 11.943359 C 11.23902 11.943359 11.458287 11.954462 11.638672 11.978516 L 11.638672 14.269531 L 11.457031 14.269531 C 10.825685 14.269531 10.258983 14.152469 9.7539062 13.917969 C 9.2007264 13.635366 8.9052173 13.265568 8.8691406 12.808594 C 8.9533202 12.303514 9.3417285 12.026616 10.033203 11.978516 C 10.387959 11.954462 10.703879 11.943359 10.980469 11.943359 z M 3.8457031 23.849609 C 3.4909467 24.216391 3.1508643 24.62701 2.8261719 25.083984 C 3.7521464 25.402664 4.4917423 26.067971 5.0449219 27.078125 C 5.3034732 26.548997 5.6380031 26.024915 6.046875 25.507812 C 6.215234 25.411607 6.2988281 25.307603 6.2988281 25.193359 C 6.2988281 25.169305 6.2857701 25.132084 6.2617188 25.083984 C 5.3898596 24.446625 4.5852802 24.036007 3.8457031 23.849609 z M 3.4394531 28.376953 L 2.7363281 29.386719 C 3.7344565 29.783565 4.4554418 30.534266 4.9003906 31.640625 C 5.2551471 31.003266 5.7420075 30.404896 6.3613281 29.845703 C 5.4113023 28.889667 4.4375815 28.401006 3.4394531 28.376953 z M 10.980469 34.960938 C 11.23902 34.960938 11.458287 34.97204 11.638672 34.996094 L 11.638672 37.287109 L 11.457031 37.287109 C 10.825685 37.287109 10.258983 37.170047 9.7539062 36.935547 C 9.2007264 36.652944 8.9052173 36.283147 8.8691406 35.826172 C 8.9533202 35.321093 9.3417285 35.044194 10.033203 34.996094 C 10.387959 34.97204 10.703879 34.960938 10.980469 34.960938 z "
     style="font-style:normal;font-weight:normal;font-size:medium;line-height:125%;font-family:sans-serif;letter-spacing:0px;word-spacing:0px;fill:#000000;fill-opacity:1;stroke:none;stroke-width:1px;stroke-linecap:butt;stroke-linejoin:miter;stroke-opacity:1" />
</svg>
