<?xml version="1.0" encoding="UTF-8" standalone="no"?>
<!-- Created with Inkscape (http://www.inkscape.org/) -->

<svg
   xmlns:dc="http://purl.org/dc/elements/1.1/"
   xmlns:cc="http://creativecommons.org/ns#"
   xmlns:rdf="http://www.w3.org/1999/02/22-rdf-syntax-ns#"
   xmlns:svg="http://www.w3.org/2000/svg"
   xmlns="http://www.w3.org/2000/svg"
   xmlns:sodipodi="http://sodipodi.sourceforge.net/DTD/sodipodi-0.dtd"
   xmlns:inkscape="http://www.inkscape.org/namespaces/inkscape"
   width="48"
   height="48"
   id="svg2"
   version="1.1"
   inkscape:version="0.48.2 r9819"
   sodipodi:docname="ru.svg">
  <defs
     id="defs4" />
  <sodipodi:namedview
     id="base"
     pagecolor="#ffffff"
     bordercolor="#666666"
     borderopacity="1.0"
     inkscape:pageopacity="0"
     inkscape:pageshadow="2"
     inkscape:zoom="4.3299648"
     inkscape:cx="35.026079"
     inkscape:cy="38.546185"
     inkscape:document-units="px"
     inkscape:current-layer="layer1"
     showgrid="false"
     inkscape:window-width="1366"
     inkscape:window-height="719"
     inkscape:window-x="0"
     inkscape:window-y="0"
     inkscape:window-maximized="1" />
  <metadata
     id="metadata7">
    <rdf:RDF>
      <cc:Work
         rdf:about="">
        <dc:format>image/svg+xml</dc:format>
        <dc:type
           rdf:resource="http://purl.org/dc/dcmitype/StillImage" />
        <dc:title></dc:title>
      </cc:Work>
    </rdf:RDF>
  </metadata>
  <g
     inkscape:label="Layer 1"
     inkscape:groupmode="layer"
     id="layer1"
     transform="translate(0,-1004.3622)">
    <g
       id="g3884"
       transform="matrix(0.12,0,0,0.12,-0.67771668,923.49618)">
      <g
         transform="translate(16,16)"
         id="g3870"
         style="fill:#000000;fill-opacity:1">
        <path
           d="m 181.05217,754.04143 -39.47366,74.67101 -44.736818,-74.67101 -75.328904,0 80.921002,134.53939 0,84.86838 68.09207,0 0,-87.8289 79.93416,-131.57887 -69.40785,0"
           id="path3872"
           inkscape:connector-curvature="0"
           style="font-size:144px;font-style:normal;font-variant:normal;font-weight:normal;font-stretch:normal;line-height:125%;letter-spacing:0px;word-spacing:0px;fill:#000000;fill-opacity:1;stroke:none;font-family:URW Grotesk T;-inkscape-font-specification:URW Grotesk T" />
        <path
           d="m 373.78249,819.83086 -63.4868,0 0,17.76315 c -10.19736,-16.77628 -20.39475,-22.03946 -42.76313,-22.03946 -48.02625,0 -74.34207,28.9474 -74.34207,82.56574 0,50.32887 25.00003,79.60522 68.09207,79.60522 23.35523,0 35.85524,-4.93423 49.01313,-19.40788 l 0,15.13157 63.4868,0 0,-153.61834 m -87.82889,40.78945 c 15.13154,0 24.34209,13.15791 24.34209,35.5263 0,24.99996 -8.2237,36.84208 -25.65788,36.84208 -15.46052,0 -24.01315,-12.82896 -24.01315,-36.18419 0,-23.68417 8.88158,-36.18419 25.32894,-36.18419"
           id="path3874"
           inkscape:connector-curvature="0"
           style="font-size:144px;font-style:normal;font-variant:normal;font-weight:normal;font-stretch:normal;line-height:125%;letter-spacing:0px;word-spacing:0px;fill:#000000;fill-opacity:1;stroke:none;font-family:URW Grotesk T;-inkscape-font-specification:URW Grotesk T" />
      </g>
      <g
         style="fill:#1b17ca;fill-opacity:1"
         id="g3866">
        <path
           style="font-size:144px;font-style:normal;font-variant:normal;font-weight:normal;font-stretch:normal;line-height:125%;letter-spacing:0px;word-spacing:0px;fill:#1b17ca;fill-opacity:1;stroke:none;font-family:URW Grotesk T;-inkscape-font-specification:URW Grotesk T"
           inkscape:connector-curvature="0"
           id="path3841"
           d="m 181.05217,754.04143 -39.47366,74.67101 -44.736818,-74.67101 -75.328904,0 80.921002,134.53939 0,84.86838 68.09207,0 0,-87.8289 79.93416,-131.57887 -69.40785,0" />
        <path
           style="font-size:144px;font-style:normal;font-variant:normal;font-weight:normal;font-stretch:normal;line-height:125%;letter-spacing:0px;word-spacing:0px;fill:#1b17ca;fill-opacity:1;stroke:none;font-family:URW Grotesk T;-inkscape-font-specification:URW Grotesk T"
           inkscape:connector-curvature="0"
           id="path3843"
           d="m 373.78249,819.83086 -63.4868,0 0,17.76315 c -10.19736,-16.77628 -20.39475,-22.03946 -42.76313,-22.03946 -48.02625,0 -74.34207,28.9474 -74.34207,82.56574 0,50.32887 25.00003,79.60522 68.09207,79.60522 23.35523,0 35.85524,-4.93423 49.01313,-19.40788 l 0,15.13157 63.4868,0 0,-153.61834 m -87.82889,40.78945 c 15.13154,0 24.34209,13.15791 24.34209,35.5263 0,24.99996 -8.2237,36.84208 -25.65788,36.84208 -15.46052,0 -24.01315,-12.82896 -24.01315,-36.18419 0,-23.68417 8.88158,-36.18419 25.32894,-36.18419" />
      </g>
    </g>
  </g>
</svg>
