<?xml version="1.0" encoding="UTF-8" standalone="no"?>
<!-- Created with Inkscape (http://www.inkscape.org/) -->

<svg
   xmlns:dc="http://purl.org/dc/elements/1.1/"
   xmlns:cc="http://creativecommons.org/ns#"
   xmlns:rdf="http://www.w3.org/1999/02/22-rdf-syntax-ns#"
   xmlns:svg="http://www.w3.org/2000/svg"
   xmlns="http://www.w3.org/2000/svg"
   xmlns:sodipodi="http://sodipodi.sourceforge.net/DTD/sodipodi-0.dtd"
   xmlns:inkscape="http://www.inkscape.org/namespaces/inkscape"
   width="48"
   height="48"
   id="svg2"
   version="1.1"
   inkscape:version="0.48.2 r9819"
   sodipodi:docname="ua.svg">
  <defs
     id="defs4" />
  <sodipodi:namedview
     id="base"
     pagecolor="#ffffff"
     bordercolor="#666666"
     borderopacity="1.0"
     inkscape:pageopacity="0"
     inkscape:pageshadow="2"
     inkscape:zoom="2.49"
     inkscape:cx="-55.012279"
     inkscape:cy="38.199551"
     inkscape:document-units="px"
     inkscape:current-layer="layer1"
     showgrid="false"
     inkscape:window-width="1366"
     inkscape:window-height="719"
     inkscape:window-x="0"
     inkscape:window-y="0"
     inkscape:window-maximized="1" />
  <metadata
     id="metadata7">
    <rdf:RDF>
      <cc:Work
         rdf:about="">
        <dc:format>image/svg+xml</dc:format>
        <dc:type
           rdf:resource="http://purl.org/dc/dcmitype/StillImage" />
        <dc:title />
      </cc:Work>
    </rdf:RDF>
  </metadata>
  <g
     inkscape:label="Layer 1"
     inkscape:groupmode="layer"
     id="layer1"
     transform="translate(0,-1004.3622)">
    <g
       id="g3809"
       transform="matrix(0.1425,0,0,0.1425,-5.6400002,905.76059)">
      <g
         transform="matrix(2.3098684,0,0,2.3098684,-152.54903,259.82192)"
         style="font-size:144px;font-style:normal;font-variant:normal;font-weight:normal;font-stretch:normal;line-height:125%;letter-spacing:0px;word-spacing:0px;fill:#000000;fill-opacity:1;stroke:none;font-family:URW Grotesk T;-inkscape-font-specification:URW Grotesk T"
         id="g3803">
        <path
           d="m 164.08,217.58835 -17.28,32.688 -19.584,-32.688 -32.976,0 35.424,58.896 0,37.152 29.808,0 0,-38.448 34.992,-57.6 -30.384,0"
           id="path3805"
           inkscape:connector-curvature="0"
           style="fill:#000000;fill-opacity:1" />
        <path
           d="m 224.14825,246.38835 -27.792,0 0,67.248 27.792,0 0,-67.248 m -14.256,-33.12 c -8.63999,0 -14.832,5.90401 -14.832,14.256 0,8.35199 6.19201,14.256 14.832,14.256 8.78399,0 14.976,-5.90401 14.976,-14.256 0,-8.35199 -6.19201,-14.256 -14.976,-14.256"
           id="path3807"
           inkscape:connector-curvature="0"
           style="fill:#000000;fill-opacity:1" />
      </g>
      <g
         id="text3026"
         style="font-size:144px;font-style:normal;font-variant:normal;font-weight:normal;font-stretch:normal;line-height:125%;letter-spacing:0px;word-spacing:0px;fill:#005aff;fill-opacity:1;stroke:none;font-family:URW Grotesk T;-inkscape-font-specification:URW Grotesk T"
         transform="matrix(2.3098684,0,0,2.3098684,-168.54903,243.82192)">
        <path
           style="fill:#005aff;fill-opacity:1"
           inkscape:connector-curvature="0"
           id="path3031"
           d="m 164.08,217.58835 -17.28,32.688 -19.584,-32.688 -32.976,0 35.424,58.896 0,37.152 29.808,0 0,-38.448 34.992,-57.6 -30.384,0" />
        <path
           style="fill:#005aff;fill-opacity:1"
           inkscape:connector-curvature="0"
           id="path3033"
           d="m 224.14825,246.38835 -27.792,0 0,67.248 27.792,0 0,-67.248 m -14.256,-33.12 c -8.63999,0 -14.832,5.90401 -14.832,14.256 0,8.35199 6.19201,14.256 14.832,14.256 8.78399,0 14.976,-5.90401 14.976,-14.256 0,-8.35199 -6.19201,-14.256 -14.976,-14.256" />
      </g>
    </g>
  </g>
</svg>
